<svg xmlns="http://www.w3.org/2000/svg" fill="none" viewBox="0 0 100 100" id="Spa--Streamline-Sharp" height="100" width="100">
  <desc>
    Spa Streamline Icon: https://streamlinehq.com
  </desc>
  <g id="spa--spa-flower-lotus-lily-hotel">
    <path id="Union" fill="#000000" fill-rule="evenodd" d="M64.02916666666667 56.86375c3.7208333333333337 -3.7208333333333337 5.81125 -8.7675 5.81125 -14.030000000000001l0 -5.753875000000001 -19.841250000000002 -32.73825 -19.841375000000003 32.73825v5.753875000000001c0 5.2625 2.090416666666667 10.309166666666668 5.811375000000001 14.030000000000001 3.721 3.7208333333333337 8.767916666666666 5.81125 14.030000000000001 5.81125 5.262083333333333 0 10.30875 -2.090416666666667 14.030000000000001 -5.81125ZM91.66666666666667 95.83375000000001H8.333333333333334v-8.333333333333334h83.33333333333334v8.333333333333334Zm-15.576250000000002 -60.5v7.500000000000001c0 6.920000000000001 -2.74875 13.55625 -7.642083333333334 18.449583333333337 -1.7337500000000001 1.7337500000000001 -3.686666666666667 3.1983333333333333 -5.793333333333334 4.367083333333333 3.7895833333333333 1.4829166666666667 7.971666666666668 1.7791666666666668 11.977916666666667 0.8004166666666667 5.128750000000001 -1.252916666666667 9.549583333333334 -4.491666666666667 12.290000000000001 -9.00375l2.9795833333333333 -4.905833333333334 0.03625 -38.40529166666666 -20.29125 10.566916666666668 6.442916666666667 10.630875000000001ZM25.368333333333336 66.45083333333334c4.0058750000000005 0.9783333333333334 8.18725 0.6825000000000001 11.976291666666667 -0.8 -2.107291666666667 -1.1683333333333334 -4.060583333333334 -2.6333333333333337 -5.794875000000001 -4.367500000000001 -4.893041666666668 -4.893333333333334 -7.641958333333334 -11.529583333333335 -7.641958333333334 -18.449583333333337l0 -7.500000000000001 6.443708333333333 -10.632083333333334 -20.288833333333336 -10.565708333333333 0.03641666666666667 38.40529166666666 2.979416666666667 4.905833333333334c2.740541666666667 4.512083333333334 7.161333333333334 7.750833333333334 12.289833333333334 9.00375Z" clip-rule="evenodd" stroke-width="4.1667"></path>
  </g>
</svg>